<svg width="510" height="510" viewBox="0 0 510 510" fill="none" xmlns="http://www.w3.org/2000/svg">
<path fill-rule="evenodd" clip-rule="evenodd" d="M255 0C114.281 0 0 114.707 0 255C0 395.719 114.281 510 255 510C395.719 510 510 395.719 510 255C509.574 114.707 395.293 0 255 0ZM255 25.5853C365.017 25.5853 456.697 104.047 478.871 206.814H354.356C347.96 206.814 342.843 211.505 341.564 217.901L316.405 358.62L257.132 94.2391C255.853 88.2692 250.736 84.005 244.766 84.005C238.796 84.005 233.253 87.8428 231.973 93.8127L175.686 304.465L152.232 216.622C150.527 211.079 145.41 206.388 139.44 206.388H31.1288C52.8763 104.047 144.983 25.5853 255 25.5853ZM26.0117 255.426C26.0117 381.647 128.779 483.988 255 483.988C380.794 483.988 483.562 381.647 483.562 255.426C483.562 248.177 483.562 240.502 482.709 234.532H365.443L331.756 424.716C330.477 431.112 325.36 434.95 318.963 434.95C312.567 434.95 307.45 430.686 306.171 424.716L242.634 154.365L188.478 358.62C186.773 364.164 181.656 368.428 175.686 368.428C169.716 368.428 164.599 364.59 162.893 359.047L129.632 234.532H26.8645C26.4381 240.075 26.0117 248.177 26.0117 255.426Z" fill="#224D5B"/>
</svg>
